<?xml version="1.0" encoding="UTF-8"?>
<svg version="1.1" xmlns="http://www.w3.org/2000/svg" width="1032" height="253">
<path d="M0 0 C17.16 0 34.32 0 52 0 C49.75451598 12.35016211 49.75451598 12.35016211 48.52734375 17.734375 C48.26759766 18.88550781 48.00785156 20.03664063 47.74023438 21.22265625 C47.20150501 23.58991959 46.66243811 25.95710613 46.12304688 28.32421875 C44.53654606 35.25516817 44.53654606 35.25516817 43.37890625 42.265625 C43 45 43 45 42 46 C66.75 46.495 66.75 46.495 92 47 C92.66 43.04 93.32 39.08 94 35 C94.62077984 32.04585723 95.25777194 29.10951732 95.9453125 26.171875 C96.10056396 25.49592285 96.25581543 24.8199707 96.41577148 24.12353516 C96.98157849 21.66478107 97.55361981 19.20746493 98.125 16.75 C100.043125 8.45875 100.043125 8.45875 102 0 C119.16 0 136.32 0 154 0 C151.74824317 15.76229782 151.74824317 15.76229782 150.30859375 22.078125 C150.158423 22.74164978 150.00825226 23.40517456 149.85353088 24.08880615 C149.54277397 25.45677992 149.22940249 26.82416257 148.91333008 28.19091797 C148.42857732 30.28861155 147.95297696 32.38823827 147.47851562 34.48828125 C145.15020123 44.69959755 145.15020123 44.69959755 144 47 C156.54 47 169.08 47 182 47 C182 63.5 182 80 182 97 C166.16 97 150.32 97 134 97 C132.68 103.27 131.36 109.54 130 116 C129.27833324 119.35632318 128.55420147 122.71076045 127.8125 126.0625 C127.64814453 126.81853516 127.48378906 127.57457031 127.31445312 128.35351562 C126.11807785 133.7638443 126.11807785 133.7638443 125 136 C137.54 136 150.08 136 163 136 C163 152.5 163 169 163 186 C146.83 186 130.66 186 114 186 C113.67 188.97 113.34 191.94 113 195 C112.59039673 197.21290102 112.14588813 199.41974119 111.66015625 201.6171875 C111.40169922 202.80183594 111.14324219 203.98648438 110.87695312 205.20703125 C110.60818359 206.41746094 110.33941406 207.62789062 110.0625 208.875 C109.53086689 211.28869194 109.00089622 213.7027507 108.47265625 216.1171875 C108.12086304 217.70442627 108.12086304 217.70442627 107.76196289 219.32373047 C106.75167575 224.19809887 105.89048566 229.10232885 105 234 C87.84 234 70.68 234 53 234 C53.61790531 228.43885222 54.24609458 223.27007995 55.33984375 217.83984375 C55.7275293 215.9072168 55.7275293 215.9072168 56.12304688 213.93554688 C56.25702881 213.27804443 56.39101074 212.62054199 56.52905273 211.94311523 C56.93722363 209.93885709 57.33919324 207.93343002 57.74023438 205.92773438 C59.02419538 199.56527747 60.42415778 193.30336889 62 187 C37.25 186.505 37.25 186.505 12 186 C11.67 189.3 11.34 192.6 11 196 C10.44492712 198.86901664 9.85925098 201.68804732 9.1875 204.52734375 C9.01371826 205.28294083 8.83993652 206.0385379 8.66088867 206.81703186 C8.11301871 209.19189868 7.55649774 211.56464204 7 213.9375 C6.62707001 215.55261113 6.25467006 217.16784474 5.8828125 218.78320312 C5.52651711 220.32302676 5.16976301 221.86274433 4.8125 223.40234375 C4.64580811 224.12107162 4.47911621 224.8397995 4.30737305 225.58030701 C3.63713985 228.4354462 2.92807164 231.21578509 2 234 C-15.16 234 -32.32 234 -50 234 C-48.82760352 226.96562111 -47.6733708 220.08872426 -46.0546875 213.171875 C-45.87994904 212.4119928 -45.70521057 211.6521106 -45.525177 210.86920166 C-44.97849585 208.4953393 -44.42686094 206.12266289 -43.875 203.75 C-43.49836557 202.11856627 -43.12206118 200.48705632 -42.74609375 198.85546875 C-41.83452519 194.9027582 -40.91851925 190.95110089 -40 187 C-40.56154282 186.98969254 -41.12308563 186.97938507 -41.7016449 186.96876526 C-47.52493466 186.86092315 -53.34806264 186.74630792 -59.17114258 186.62768555 C-61.34688953 186.58426493 -63.52267214 186.54259529 -65.69848633 186.50268555 C-68.81863168 186.44515498 -71.93859633 186.38141177 -75.05859375 186.31640625 C-76.03775253 186.29969376 -77.01691132 186.28298126 -78.02574158 186.26576233 C-78.92659988 186.24581711 -79.82745819 186.22587189 -80.75561523 186.20532227 C-81.55281479 186.18977798 -82.35001434 186.1742337 -83.17137146 186.15821838 C-85 186 -85 186 -86 185 C-86.09319449 183.4651703 -86.117458 181.92607918 -86.11352539 180.38842773 C-86.11334412 178.89635803 -86.11334412 178.89635803 -86.11315918 177.37414551 C-86.10804321 176.32126343 -86.10292725 175.26838135 -86.09765625 174.18359375 C-86.09664917 173.22134888 -86.09564209 172.259104 -86.09460449 171.2677002 C-86.0893546 167.65762142 -86.07539348 164.04755957 -86.0625 160.4375 C-86.041875 152.373125 -86.02125 144.30875 -86 136 C-67.19 136 -48.38 136 -29 136 C-27.68 129.4 -26.36 122.8 -25 116 C-23.68 110.06 -22.36 104.12 -21 98 C-35.85 97.67 -50.7 97.34 -66 97 C-66 80.5 -66 64 -66 47 C-47.52 47 -29.04 47 -10 47 C-8.68 39.74 -7.36 32.48 -6 25 C-5.13143496 20.73911489 -4.25380376 16.49343366 -3.3125 12.25 C-3.10044922 11.26902344 -2.88839844 10.28804687 -2.66992188 9.27734375 C-1.13274515 2.2654903 -1.13274515 2.2654903 0 0 Z M31 97 C27.84371504 110.08349812 27.84371504 110.08349812 25.3125 123.25 C24.59398226 127.51346991 23.8481831 131.75908449 23 136 C39.83 136 56.66 136 74 136 C75.65 127.75 77.3 119.5 79 111 C79.99 106.38 80.98 101.76 82 97 C65.17 97 48.34 97 31 97 Z " fill="#000000" transform="translate(819,10)"/>
<path d="M0 0 C24.42 0 48.84 0 74 0 C74 27.39 74 54.78 74 83 C96.11 83 118.22 83 141 83 C141 55.61 141 28.22 141 0 C165.75 0 190.5 0 216 0 C216 76.89 216 153.78 216 233 C191.25 233 166.5 233 141 233 C141 203.3 141 173.6 141 143 C118.89 143 96.78 143 74 143 C74 172.7 74 202.4 74 233 C49.58 233 25.16 233 0 233 C0 156.11 0 79.22 0 0 Z " fill="#000000" transform="translate(31,11)"/>
<path d="M0 0 C0.99 0 1.98 0 3 0 C3.4846875 0.99257812 3.969375 1.98515625 4.46875 3.0078125 C8.39444085 10.98582938 12.5229403 18.74391699 16.99609375 26.4296875 C19.55486971 30.90723293 21.79380632 35.53811471 24.0637207 40.16650391 C26.62612141 45.35190904 29.46412067 50.32597678 32.4296875 55.29296875 C33.83835688 57.72134657 35.096962 60.15867094 36.3125 62.6875 C38.56749124 67.32358396 41.16622568 71.70613251 43.8125 76.125 C47.47970137 82.26473798 50.82436981 88.47590568 53.95800781 94.90209961 C57.64446523 102.4161626 61.77326953 109.67579629 65.86865234 116.97216797 C67.9637766 120.727477 69.98503772 124.52207042 72.015625 128.3125 C74.69520413 133.30443542 77.41217769 138.27608027 80.125 143.25 C80.62821777 144.17329102 81.13143555 145.09658203 81.64990234 146.04785156 C87.82628118 157.3932207 87.82628118 157.3932207 94.3125 168.5625 C97.47593865 173.94926646 100.26517982 179.46397302 103.0144043 185.06762695 C105.5707371 190.24028876 108.39913312 195.19860565 111.359375 200.15234375 C112.99417018 202.9898811 114.44695375 205.86617381 115.875 208.8125 C118.61191979 214.43508522 121.77244968 219.72838437 125.10498047 225.01293945 C128 229.68362897 128 229.68362897 128 233 C44.18 233 -39.64 233 -126 233 C-125.20495084 229.81980336 -124.48489167 227.76024155 -122.99609375 224.9453125 C-122.38628662 223.78745239 -122.38628662 223.78745239 -121.76416016 222.60620117 C-121.3263623 221.78740479 -120.88856445 220.9686084 -120.4375 220.125 C-119.9842334 219.27075439 -119.5309668 218.41650879 -119.06396484 217.53637695 C-115.88128035 211.56898346 -112.57221809 205.69095388 -109.1875 199.8359375 C-102.46832552 188.13421728 -96.12763401 176.20600829 -89.875 164.25 C-85.55204465 155.98886389 -81.06335534 147.83059597 -76.50878906 139.6953125 C-73.72967706 134.73068523 -70.95590376 129.76310807 -68.18710327 124.79272461 C-67.2148086 123.04897623 -66.23988812 121.30669278 -65.26489258 119.56445312 C-62.52918198 114.65500076 -59.83749006 109.74629893 -57.35546875 104.703125 C-55.15997852 100.24284642 -52.70100168 95.99890184 -50.125 91.75 C-46.36791694 85.46364334 -42.98726973 79.12110715 -39.78125 72.53515625 C-37.43169132 67.87210667 -34.85389261 63.35553095 -32.26538086 58.82226562 C-30.04549608 54.91579888 -27.96034869 50.98309495 -26 46.9375 C-23.77169209 42.37623988 -21.27836878 38.07003525 -18.625 33.75 C-15.41052891 28.51440572 -12.51134653 23.20653352 -9.8125 17.6875 C-2.84829184 3.49524899 -2.84829184 3.49524899 0 0 Z " fill="#000000" transform="translate(387,11)"/>
<path d="M0 0 C1.22847656 0.4125 2.45695313 0.825 3.72265625 1.25 C18.19026753 6.2885357 30.52020704 15.94439424 41 27 C41 29 41 29 39.6015625 30.4453125 C38.94929687 30.99960937 38.29703125 31.55390625 37.625 32.125 C36.53058594 33.05892578 36.53058594 33.05892578 35.4140625 34.01171875 C32.97042002 36.0243628 30.49032077 37.98302225 28 39.9375 C24.00752013 43.0936347 20.47025415 46.47838958 16.93359375 50.12890625 C14.44372427 52.5382951 11.72730314 54.49310704 8.921875 56.515625 C7.00239407 57.99815093 5.36882262 59.567127 3.6875 61.3125 C0.8939046 64.20090067 -2.05517385 66.73247139 -5.1875 69.25 C-9.26917653 72.53320903 -13.17015822 75.93238274 -17 79.5 C-21.60630707 83.78661008 -26.37129501 87.79753806 -31.2734375 91.74609375 C-35.11375426 94.92068224 -38.76964652 98.28146136 -42.4375 101.65234375 C-45.90574811 104.82980886 -49.44811906 107.91682087 -53 111 C-54.33382021 112.16611 -55.66714775 113.33278376 -57 114.5 C-73 128.5 -73 128.5 -75.02734375 130.2734375 C-76.27018572 131.36123186 -77.51245456 132.44968173 -78.75390625 133.5390625 C-85.80804082 139.7247615 -92.90734169 145.8585706 -100 152 C-110.17401178 147.32402524 -115.6363526 133.21357723 -119.41015625 123.29296875 C-128.20548589 98.37130032 -127.2413885 72.94615301 -116 49 C-115.60554687 48.05125 -115.21109375 47.1025 -114.8046875 46.125 C-108.61884802 32.19760094 -97.13764995 20.92520805 -85 12 C-84.04222656 11.29359375 -83.08445312 10.5871875 -82.09765625 9.859375 C-59.75511412 -5.20818237 -25.30792195 -9.91252757 0 0 Z " fill="#000000" transform="translate(646,12)"/>
<path d="M0 0 C6.87575976 2.29191992 11.95969287 12.51978209 15.25 18.75 C27.3581079 44.44609565 27.93016091 71.73703893 18.4921875 98.34765625 C9.95183964 119.25138728 -7.37190279 138.45295002 -28 148 C-50.12036789 156.74792817 -77.19792794 160.94800138 -100 152 C-101.86011719 151.36384766 -101.86011719 151.36384766 -103.7578125 150.71484375 C-117.84713783 145.73387691 -129.75226077 136.77779471 -140 126 C-140.33 125.01 -140.66 124.02 -141 123 C-136.56767503 119.05027775 -132.06187458 115.22377124 -127.4375 111.5 C-123.62722139 108.40775188 -120.14166544 105.20928899 -116.7421875 101.6796875 C-114.08417386 99.11702861 -111.12825796 96.97543845 -108.1875 94.75 C-106.1314683 93.10517464 -104.32573153 91.39335122 -102.5 89.5 C-100.09815108 87.01589598 -97.63798929 84.88725377 -94.875 82.8125 C-89.034659 78.38981442 -83.79613547 73.33728439 -78.44824219 68.34375 C-74.34745077 64.53883497 -70.08388205 60.92137987 -65.82421875 57.296875 C-64.63255524 56.28155186 -63.44115753 55.2659167 -62.25 54.25 C-61.34568237 53.47897949 -61.34568237 53.47897949 -60.4230957 52.69238281 C-56.45401466 49.29167545 -52.57782279 45.80845979 -48.75 42.25 C-44.4908509 38.2925319 -40.08028208 34.6159553 -35.50390625 31.03125 C-31.71999248 27.96161636 -28.16055205 24.6595067 -24.57421875 21.36328125 C-21.85594861 18.86775252 -19.10668299 16.41779533 -16.3125 14.0078125 C-14.35842973 12.31120419 -12.42758003 10.59363762 -10.5 8.8671875 C-9.22945948 7.74446022 -7.95862403 6.62206661 -6.6875 5.5 C-5.77037231 4.66976318 -5.77037231 4.66976318 -4.8347168 3.82275391 C-3.28902906 2.46933935 -1.64985048 1.22428549 0 0 Z " fill="#000000" transform="translate(687,89)"/>
</svg>
